<?xml version="1.0" encoding="UTF-8"?>
<svg width="20px" height="20px" viewBox="0 0 20 20" version="1.1" xmlns="http://www.w3.org/2000/svg" xmlns:xlink="http://www.w3.org/1999/xlink">
    <title>个人中心</title>
    <g id="控件" stroke="none" stroke-width="1" fill="none" fill-rule="evenodd">
        <g id="nav" transform="translate(-339, -12)" fill="#999999" fill-rule="nonzero">
            <g id="个人中心" transform="translate(339, 12)">
                <path d="M4.81647321,16.8270312 C6.2559375,17.9216741 8.05209821,18.5714286 10,18.5714286 C11.9479018,18.5714286 13.7440625,17.9216518 15.1835268,16.8270312 C15.1838839,16.8017187 15.1840625,16.7763616 15.1840625,16.7509598 C15.1840625,13.8663839 12.8630804,11.5279687 10,11.5279687 C7.13691964,11.5279687 4.8159375,13.8663839 4.8159375,16.7509598 C4.8159375,16.7763616 4.81611607,16.8017187 4.81647321,16.8270312 Z M3.49453125,15.5812946 C3.89381696,13.3116518 5.43459821,11.439375 7.49776786,10.5881696 C6.590625,9.85133929 6.01026786,8.72252232 6.01026786,7.45714286 C6.0103125,5.23714286 7.7965625,3.4375 10,3.4375 C12.2034375,3.4375 13.9896875,5.23714286 13.9896875,7.45714286 C13.9896875,8.72252232 13.4093527,9.85133929 12.5021875,10.5881696 C14.5653795,11.4393527 16.106183,13.3116518 16.5054687,15.5812946 C17.7932589,14.0816518 18.5714286,12.1316964 18.5714286,10 C18.5714286,5.26613839 14.7338616,1.42857143 10,1.42857143 C5.26613839,1.42857143 1.42857143,5.26613839 1.42857143,10 C1.42857143,12.1316964 2.20674107,14.0816518 3.49453125,15.5812946 L3.49453125,15.5812946 Z M10,20 C4.47714286,20 0,15.5228571 0,10 C0,4.47714286 4.47714286,0 10,0 C15.5228571,0 20,4.47714286 20,10 C20,15.5228571 15.5228571,20 10,20 Z M10,10.0430134 C11.4175,10.0430134 12.5666295,8.88529018 12.5666295,7.45714286 C12.5666295,6.02899554 11.4175223,4.87125 10,4.87125 C8.5825,4.87125 7.43337054,6.02899554 7.43337054,7.45714286 C7.43337054,8.88526786 8.58247768,10.0430134 10,10.0430134 Z" id="形状"></path>
            </g>
        </g>
    </g>
</svg>