<?xml version="1.0" encoding="UTF-8"?>
<svg width="130px" height="25px" viewBox="0 0 130 25" version="1.1" xmlns="http://www.w3.org/2000/svg" xmlns:xlink="http://www.w3.org/1999/xlink">
    <title>nfty</title>
    <defs>
        <linearGradient x1="11.1483978%" y1="10.1403061%" x2="84.9292842%" y2="84.5411199%" id="linearGradient-1">
            <stop stop-color="#00D1A9" offset="0%"></stop>
            <stop stop-color="#00D0FA" offset="100%"></stop>
        </linearGradient>
        <linearGradient x1="16.8956762%" y1="-2.77555756e-14%" x2="79.7622304%" y2="93.3283808%" id="linearGradient-2">
            <stop stop-color="#00D1A9" offset="0%"></stop>
            <stop stop-color="#00D0FA" offset="100%"></stop>
        </linearGradient>
    </defs>
    <g id="dapp-evm" stroke="none" stroke-width="1" fill="none" fill-rule="evenodd">
        <g id="转账" transform="translate(-14, -99)" fill-rule="nonzero">
            <g id="nav" transform="translate(0, 89)">
                <g id="编组备份-2" transform="translate(14, 10)">
                    <g id="AveMINT" transform="translate(31, 6)" fill="#333333" fill-opacity="0.9">
                        <polygon id="路径" points="2.03 10.654 0 10.654 0 0.406 2.03 0.406"></polygon>
                        <path d="M8.162,3.22 C8.96466667,3.22 9.59933333,3.48366667 10.066,4.011 C10.5326667,4.53833333 10.766,5.306 10.766,6.314 L10.766,10.654 L8.82,10.654 L8.82,6.944 C8.82,5.61866667 8.38133333,4.956 7.504,4.956 C7.03733333,4.956 6.66166667,5.13566667 6.377,5.495 C6.09233333,5.85433333 5.95,6.36066667 5.95,7.014 L5.95,10.654 L4.004,10.654 L4.004,3.402 L5.712,3.402 C5.75866667,3.97133333 5.80066667,4.35866667 5.838,4.564 C6.30466667,3.668 7.07933333,3.22 8.162,3.22 Z" id="路径"></path>
                        <path d="M17.836,8.498 C17.836,9.21666667 17.5583333,9.78366667 17.003,10.199 C16.4476667,10.6143333 15.7266667,10.822 14.84,10.822 C14.0746667,10.822 13.4143333,10.6586667 12.859,10.332 C12.3036667,10.0053333 11.928,9.55266667 11.732,8.974 L13.146,8.148 C13.286,8.49333333 13.5053333,8.76166667 13.804,8.953 C14.1026667,9.14433333 14.4526667,9.24 14.854,9.24 C15.1526667,9.24 15.3906667,9.184 15.568,9.072 C15.7453333,8.96 15.834,8.80133333 15.834,8.596 C15.834,8.36266667 15.7173333,8.183 15.484,8.057 C15.2506667,7.931 14.8866667,7.798 14.392,7.658 C13.8973333,7.50866667 13.4936667,7.364 13.181,7.224 C12.8683333,7.084 12.5976667,6.881 12.369,6.615 C12.1403333,6.349 12.026,6.00133333 12.026,5.572 C12.026,5.08666667 12.159,4.66666667 12.425,4.312 C12.691,3.95733333 13.048,3.68666667 13.496,3.5 C13.944,3.31333333 14.434,3.22 14.966,3.22 C15.694,3.22 16.31,3.37633333 16.814,3.689 C17.318,4.00166667 17.6353333,4.41466667 17.766,4.928 L16.352,5.726 C16.072,5.11933333 15.6006667,4.816 14.938,4.816 C14.658,4.816 14.434,4.86966667 14.266,4.977 C14.098,5.08433333 14.014,5.236 14.014,5.432 C14.014,5.656 14.126,5.82633333 14.35,5.943 C14.574,6.05966667 14.924,6.18333333 15.4,6.314 C15.904,6.454 16.3193333,6.594 16.646,6.734 C16.9726667,6.874 17.2526667,7.08633333 17.486,7.371 C17.7193333,7.65566667 17.836,8.03133333 17.836,8.498 Z" id="路径"></path>
                        <path d="M22.274,9.128 C22.834,9.128 23.282,8.85266667 23.618,8.302 L25.102,9.17 C24.8686667,9.71133333 24.5,10.122 23.996,10.402 C23.492,10.682 22.918,10.822 22.274,10.822 C21.63,10.822 21.028,10.675 20.468,10.381 C19.908,10.087 19.4553333,9.653 19.11,9.079 C18.7646667,8.505 18.592,7.82133333 18.592,7.028 C18.592,6.22533333 18.7646667,5.537 19.11,4.963 C19.4553333,4.389 19.908,3.955 20.468,3.661 C21.028,3.367 21.63,3.22 22.274,3.22 C22.918,3.22 23.492,3.36 23.996,3.64 C24.5,3.92 24.8686667,4.33066667 25.102,4.872 L23.618,5.74 C23.2913333,5.19866667 22.8433333,4.928 22.274,4.928 C21.77,4.928 21.3663333,5.117 21.063,5.495 C20.7596667,5.873 20.608,6.384 20.608,7.028 C20.608,7.66266667 20.762,8.17133333 21.07,8.554 C21.378,8.93666667 21.7793333,9.128 22.274,9.128 Z" id="路径"></path>
                        <path d="M29.89,3.22 C30.17,3.22 30.4313333,3.262 30.674,3.346 C30.9166667,3.43 31.1033333,3.53733333 31.234,3.668 L30.478,5.166 C30.2353333,4.998 29.96,4.914 29.652,4.914 C29.148,4.914 28.7443333,5.124 28.441,5.544 C28.1376667,5.964 27.986,6.54266667 27.986,7.28 L27.986,10.654 L26.04,10.654 L26.04,3.402 L27.748,3.402 C27.7946667,3.962 27.8366667,4.34466667 27.874,4.55 C28.0886667,4.11133333 28.3686667,3.78 28.714,3.556 C29.0593333,3.332 29.4513333,3.22 29.89,3.22 Z" id="路径"></path>
                        <path d="M33.012,2.478 C32.704,2.478 32.4356667,2.359 32.207,2.121 C31.9783333,1.883 31.864,1.60533333 31.864,1.288 C31.864,0.961333333 31.976,0.681333333 32.2,0.448 C32.424,0.214666667 32.6946667,0.098 33.012,0.098 C33.3293333,0.098 33.6046667,0.217 33.838,0.455 C34.0713333,0.693 34.188,0.970666667 34.188,1.288 C34.188,1.60533333 34.0713333,1.883 33.838,2.121 C33.6046667,2.359 33.3293333,2.478 33.012,2.478 Z M34.006,10.654 L32.06,10.654 L32.06,3.402 L34.006,3.402 L34.006,10.654 Z" id="形状"></path>
                        <path d="M39.956,3.22 C40.544,3.22 41.0876667,3.36933333 41.587,3.668 C42.0863333,3.96666667 42.483,4.40533333 42.777,4.984 C43.071,5.56266667 43.218,6.244 43.218,7.028 C43.218,7.812 43.071,8.491 42.777,9.065 C42.483,9.639 42.0863333,10.0753333 41.587,10.374 C41.0876667,10.6726667 40.544,10.822 39.956,10.822 C39.508,10.822 39.0926667,10.7333333 38.71,10.556 C38.3273333,10.3786667 38.01,10.108 37.758,9.744 L37.758,13.902 L35.812,13.902 L35.812,3.402 L37.52,3.402 L37.562,3.878 C37.5713333,3.97133333 37.5806667,4.06933333 37.59,4.172 C37.5993333,4.27466667 37.6133333,4.382 37.632,4.494 C37.884,4.06466667 38.213,3.745 38.619,3.535 C39.025,3.325 39.4706667,3.22 39.956,3.22 Z M39.508,9.1 C40.012,9.1 40.4203333,8.91566667 40.733,8.547 C41.0456667,8.17833333 41.202,7.672 41.202,7.028 C41.202,6.36533333 41.048,5.84266667 40.74,5.46 C40.432,5.07733333 40.0213333,4.886 39.508,4.886 C39.0226667,4.886 38.6096667,5.06566667 38.269,5.425 C37.9283333,5.78433333 37.758,6.31866667 37.758,7.028 C37.758,7.728 37.926,8.24833333 38.262,8.589 C38.598,8.92966667 39.0133333,9.1 39.508,9.1 Z" id="形状"></path>
                        <path d="M49.672,10.234 C49.196,10.626 48.5333333,10.822 47.684,10.822 C46.9,10.822 46.2676667,10.6143333 45.787,10.199 C45.3063333,9.78366667 45.066,9.03933333 45.066,7.966 L45.066,5.04 L43.778,5.04 L43.778,3.402 L45.066,3.402 L45.066,1.176 L47.012,1.176 L47.012,3.402 L49.196,3.402 L49.196,5.04 L47.012,5.04 L47.012,7.644 C47.012,8.12933333 47.096,8.498 47.264,8.75 C47.432,9.002 47.7026667,9.128 48.076,9.128 C48.4026667,9.128 48.7106667,9.03 49,8.834 L49.672,10.234 Z" id="路径"></path>
                        <path d="M51.506,2.478 C51.198,2.478 50.9296667,2.359 50.701,2.121 C50.4723333,1.883 50.358,1.60533333 50.358,1.288 C50.358,0.961333333 50.47,0.681333333 50.694,0.448 C50.918,0.214666667 51.1886667,0.098 51.506,0.098 C51.8233333,0.098 52.0986667,0.217 52.332,0.455 C52.5653333,0.693 52.682,0.970666667 52.682,1.288 C52.682,1.60533333 52.5653333,1.883 52.332,2.121 C52.0986667,2.359 51.8233333,2.478 51.506,2.478 Z M52.5,10.654 L50.554,10.654 L50.554,3.402 L52.5,3.402 L52.5,10.654 Z" id="形状"></path>
                        <path d="M53.886,7.028 C53.886,6.272 54.0563333,5.60466667 54.397,5.026 C54.7376667,4.44733333 55.1926667,4.00166667 55.762,3.689 C56.3313333,3.37633333 56.9473333,3.22 57.61,3.22 C58.2633333,3.22 58.8723333,3.37633333 59.437,3.689 C60.0016667,4.00166667 60.4543333,4.44733333 60.795,5.026 C61.1356667,5.60466667 61.306,6.272 61.306,7.028 C61.306,7.784 61.1356667,8.45133333 60.795,9.03 C60.4543333,9.60866667 60.0016667,10.052 59.437,10.36 C58.8723333,10.668 58.2633333,10.822 57.61,10.822 C56.9473333,10.822 56.3313333,10.668 55.762,10.36 C55.1926667,10.052 54.7376667,9.60866667 54.397,9.03 C54.0563333,8.45133333 53.886,7.784 53.886,7.028 Z M55.902,7.028 C55.902,7.672 56.063,8.183 56.385,8.561 C56.707,8.939 57.1106667,9.128 57.596,9.128 C58.0813333,9.128 58.4826667,8.939 58.8,8.561 C59.1173333,8.183 59.276,7.672 59.276,7.028 C59.276,6.384 59.1173333,5.87066667 58.8,5.488 C58.4826667,5.10533333 58.0813333,4.914 57.596,4.914 C57.1106667,4.914 56.707,5.10533333 56.385,5.488 C56.063,5.87066667 55.902,6.384 55.902,7.028 Z" id="形状"></path>
                        <path d="M66.878,3.22 C67.6806667,3.22 68.3153333,3.48366667 68.782,4.011 C69.2486667,4.53833333 69.482,5.306 69.482,6.314 L69.482,10.654 L67.536,10.654 L67.536,6.944 C67.536,5.61866667 67.0973333,4.956 66.22,4.956 C65.7533333,4.956 65.3776667,5.13566667 65.093,5.495 C64.8083333,5.85433333 64.666,6.36066667 64.666,7.014 L64.666,10.654 L62.72,10.654 L62.72,3.402 L64.428,3.402 C64.4746667,3.97133333 64.5166667,4.35866667 64.554,4.564 C65.0206667,3.668 65.7953333,3.22 66.878,3.22 Z" id="路径"></path>
                        <polygon id="路径" points="70.378 0.406 78.638 0.406 78.638 2.212 75.53 2.212 75.53 10.654 73.486 10.654 73.486 2.212 70.378 2.212"></polygon>
                        <path d="M79.254,7.028 C79.254,6.272 79.4243333,5.60466667 79.765,5.026 C80.1056667,4.44733333 80.5606667,4.00166667 81.13,3.689 C81.6993333,3.37633333 82.3153333,3.22 82.978,3.22 C83.6313333,3.22 84.2403333,3.37633333 84.805,3.689 C85.3696667,4.00166667 85.8223333,4.44733333 86.163,5.026 C86.5036667,5.60466667 86.674,6.272 86.674,7.028 C86.674,7.784 86.5036667,8.45133333 86.163,9.03 C85.8223333,9.60866667 85.3696667,10.052 84.805,10.36 C84.2403333,10.668 83.6313333,10.822 82.978,10.822 C82.3153333,10.822 81.6993333,10.668 81.13,10.36 C80.5606667,10.052 80.1056667,9.60866667 79.765,9.03 C79.4243333,8.45133333 79.254,7.784 79.254,7.028 Z M81.27,7.028 C81.27,7.672 81.431,8.183 81.753,8.561 C82.075,8.939 82.4786667,9.128 82.964,9.128 C83.4493333,9.128 83.8506667,8.939 84.168,8.561 C84.4853333,8.183 84.644,7.672 84.644,7.028 C84.644,6.384 84.4853333,5.87066667 84.168,5.488 C83.8506667,5.10533333 83.4493333,4.914 82.964,4.914 C82.4786667,4.914 82.075,5.10533333 81.753,5.488 C81.431,5.87066667 81.27,6.384 81.27,7.028 Z" id="形状"></path>
                        <path d="M87.668,7.028 C87.668,6.272 87.8383333,5.60466667 88.179,5.026 C88.5196667,4.44733333 88.9746667,4.00166667 89.544,3.689 C90.1133333,3.37633333 90.7293333,3.22 91.392,3.22 C92.0453333,3.22 92.6543333,3.37633333 93.219,3.689 C93.7836667,4.00166667 94.2363333,4.44733333 94.577,5.026 C94.9176667,5.60466667 95.088,6.272 95.088,7.028 C95.088,7.784 94.9176667,8.45133333 94.577,9.03 C94.2363333,9.60866667 93.7836667,10.052 93.219,10.36 C92.6543333,10.668 92.0453333,10.822 91.392,10.822 C90.7293333,10.822 90.1133333,10.668 89.544,10.36 C88.9746667,10.052 88.5196667,9.60866667 88.179,9.03 C87.8383333,8.45133333 87.668,7.784 87.668,7.028 Z M89.684,7.028 C89.684,7.672 89.845,8.183 90.167,8.561 C90.489,8.939 90.8926667,9.128 91.378,9.128 C91.8633333,9.128 92.2646667,8.939 92.582,8.561 C92.8993333,8.183 93.058,7.672 93.058,7.028 C93.058,6.384 92.8993333,5.87066667 92.582,5.488 C92.2646667,5.10533333 91.8633333,4.914 91.378,4.914 C90.8926667,4.914 90.489,5.10533333 90.167,5.488 C89.845,5.87066667 89.684,6.384 89.684,7.028 Z" id="形状"></path>
                        <polygon id="路径" points="98.448 10.654 96.502 10.654 96.502 0 98.448 0"></polygon>
                    </g>
                    <path d="M2.80863883,11.5262555 C3.25219054,11.6399935 3.56192813,12.0413663 3.56192813,12.501018 C3.56192813,18.2819142 8.24448675,22.9855898 13.9994299,22.9855898 C18.5144869,22.9855898 22.4989662,20.0942017 23.9129043,15.7918989 C23.995864,15.5378078 24.176139,15.3273619 24.4138896,15.2070686 C24.6516402,15.0867753 24.927292,15.0665385 25.1799276,15.1508304 C25.7048907,15.3256673 25.9921699,15.8934171 25.818118,16.4235676 C24.1381275,21.5479553 19.3703149,25.0077891 13.9994299,24.9999868 C8.23138606,24.9999868 3.36728941,21.0388847 1.9645805,15.679101 L1.88129758,15.8332582 C1.68453737,16.1882383 1.29510485,16.3901431 0.89307072,16.3456132 C0.491036586,16.3010833 0.154753314,16.0187972 0.0397157772,15.6292819 C-0.0343336717,15.3731061 -0.00403920247,15.0978739 0.123934457,14.8641356 L1.68104428,12.0159867 C1.9015772,11.6133516 2.36555454,11.4118393 2.80863883,11.5262555 L2.80863883,11.5262555 Z M13.9994299,9.08247362e-05 C19.7590518,9.08247362e-05 24.6175339,3.95281148 26.0286647,9.29661554 L26.1166264,9.13493845 C26.3558275,8.69116267 26.8853762,8.49414906 27.354641,8.67434672 L27.4762902,8.7307457 C27.709725,8.85799147 27.8832677,9.0731871 27.9587308,9.32897945 C28.0341939,9.58477181 28.005394,9.86020154 27.8786684,10.0946612 L26.3215586,12.9813494 C26.1012093,13.383507 25.6383125,13.5854718 25.1953233,13.4727329 C24.752334,13.359994 24.4410102,12.9609934 24.4378674,12.501958 C24.4378674,6.72106178 19.7562446,2.01456628 14.0013014,2.01456628 C9.41165365,1.99572837 5.35367463,5.00469276 4.01951629,9.4159934 C3.84049469,9.9263432 3.29216884,10.2035563 2.7774657,10.0439279 C2.26276255,9.88429949 1.96545292,9.34482365 2.1040092,8.82192407 C3.69409202,3.56523904 8.52920629,-0.0208034866 13.9984941,9.08247362e-05 L13.9994299,9.08247362e-05 Z" id="形状" fill="url(#linearGradient-1)"></path>
                    <g id="编组" transform="translate(8, 6)" fill="url(#linearGradient-2)">
                        <path d="M6.85714286,10.4 L2.14761906,10.4 C1.90829567,10.4 1.71428573,10.5940099 1.71428573,10.8333333 C1.71428573,11.0726567 1.90829567,11.2666667 2.14761906,11.2666667 L11.1333333,11.2666667 C11.6119801,11.2666667 12,11.6546866 12,12.1333333 L12,12.1333333 L12,12.1333333 C12,12.6119801 11.6162441,13 11.1428571,13 L0.857142863,13 C0.383755931,13 0,12.6119801 0,12.1333333 L0,0.866666673 C0,0.388019887 0.383755931,0 0.857142863,0 L11.1428571,0 C11.6162441,0 12,0.388019887 12,0.866666673 L12,5.25714286 C12,8.09746443 9.69746443,10.4 6.85714286,10.4 Z M7.96842857,2.7313 C7.80107149,2.56213449 7.52978565,2.56213449 7.36242858,2.7313 L4.33457144,5.79323333 L5.54571429,7.01783333 L8.574,3.95633333 C8.65447587,3.87505375 8.69969427,3.76476067 8.69969427,3.64975 C8.69969427,3.53473933 8.65447587,3.42444625 8.574,3.34316667 L7.96842857,2.7313 L7.96842857,2.7313 Z M3.72857142,7.63013333 L5.24271429,7.3242 L4.03157143,6.09916667 L3.72857142,7.63013333 L3.72857142,7.63013333 Z" id="形状"></path>
                    </g>
                </g>
            </g>
        </g>
    </g>
</svg>